<?xml version="1.0" encoding="UTF-8"?>
<svg fill="none" viewBox="0 0 150 150" xmlns="http://www.w3.org/2000/svg">
<g clip-path="url(#a)" fill="#fff">
<path d="m150 75c0 17.352-6.016 34.166-17.024 47.579s-26.326 22.594-43.344 25.98c-17.018 3.385-34.684 0.764-49.986-7.415-15.303-8.18-27.296-21.412-33.936-37.443-6.6402-16.031-7.5165-33.868-2.4796-50.473 5.0369-16.605 15.675-30.949 30.103-40.589 14.428-9.64 31.751-13.979 49.019-12.279 17.268 1.7008 33.413 9.3364 45.682 21.606l-11.065 11.065c-9.71-9.7095-22.485-15.752-36.151-17.098-13.665-1.3459-27.374 2.088-38.791 9.7167-11.417 7.6287-19.836 18.98-23.822 32.12-3.9859 13.14-3.2925 27.255 1.9622 39.941 5.2547 12.686 14.745 23.158 26.855 29.631s26.089 8.546 39.557 5.868c13.467-2.679 25.589-9.945 34.3-20.559 8.711-10.615 13.472-23.921 13.472-37.652h15.649z"/>
<path d="m146.41 75h-33.233v15.27h33.233v-15.27z"/>
<path d="m58.089 41.137c-2.5564 0.0357-5.082 0.5747-7.4324 1.5864-2.3503 1.012-4.4796 2.4766-6.2666 4.311-1.7867 1.8343-3.1957 4.0023-4.1467 6.3796-0.951 2.3777-1.4253 4.9184-1.3957 7.477 0.0297 2.5587 0.5624 5.0854 1.568 7.436 1.0054 2.3504 2.464 4.4784 4.2927 6.2627 1.8283 1.7843 3.991 3.19 6.364 4.1363 2.373 0.9467 4.91 1.4157 7.4663 1.3804l-0.1173-10.188c-1.2197 0.0166-2.4303-0.207-3.5627-0.6587-1.132-0.4517-2.164-1.122-3.0363-1.9733-0.8723-0.8514-1.5683-1.867-2.048-2.9884-0.48-1.1213-0.734-2.327-0.748-3.5476-0.0143-1.221 0.212-2.4334 0.6657-3.5677 0.4536-1.1343 1.126-2.1687 1.9786-3.0437 0.8524-0.8753 1.8684-1.574 2.9897-2.057 1.1217-0.4826 2.3267-0.74 3.5463-0.7566l-0.1176-10.188z"/>
<path d="m58.228 69.893c-2.5563 0.0353-5.082 0.5743-7.4323 1.5863-2.3503 1.0117-4.4797 2.4767-6.2663 4.311-1.787 1.8344-3.196 4.002-4.147 6.3797-0.951 2.3773-1.425 4.918-1.3957 7.477 0.0297 2.5587 0.5623 5.0853 1.568 7.4357 1.0053 2.3506 2.464 4.479 4.2927 6.263 1.8283 1.784 3.991 3.19 6.364 4.136 2.373 0.947 4.9103 1.416 7.4666 1.381l-0.1176-10.189c-1.2197 0.017-2.4304-0.2067-3.5627-0.6583-1.132-0.4517-2.164-1.1223-3.0363-1.9737-0.8724-0.8513-1.5684-1.8667-2.048-2.988-0.48-1.1217-0.734-2.327-0.748-3.548-0.0144-1.2206 0.212-2.433 0.6656-3.5673 0.454-1.1344 1.126-2.1687 1.9787-3.0437 0.8523-0.8753 1.8683-1.5743 2.99-2.057 1.1213-0.4827 2.3263-0.74 3.546-0.757l-0.1177-10.188z"/>
<path d="m75.912 41.046h-14.892v67.599h14.892v-67.599z"/>
<path d="m111.64 41.317h-16.381l-9.6794 16.475-9.6793 16.475 19.359 34.649h16.381l-16.381-34.649 16.381-32.951z"/>
</g>
<defs>
<clipPath id="a">
<rect width="150" height="150" fill="#fff"/>
</clipPath>
</defs>
</svg>
