<svg width="150" height="150" viewBox="0 0 150 150" fill="none" xmlns="http://www.w3.org/2000/svg">
<path d="M150 75C150 92.3516 143.984 109.166 132.976 122.579C121.968 135.992 106.65 145.174 89.6318 148.559C72.6135 151.944 54.948 149.324 39.6452 141.144C24.3425 132.965 12.3492 119.732 5.70904 103.701C-0.931151 87.6704 -1.80744 69.8331 3.22947 53.2287C8.26639 36.6242 18.9049 22.2798 33.3322 12.6398C47.7596 2.99972 65.0832 -1.33961 82.3513 0.361145C99.6194 2.0619 115.764 9.69752 128.033 21.967L116.968 33.0323C107.258 23.3229 94.4825 17.2804 80.8174 15.9345C67.1523 14.5886 53.4433 18.0226 42.0262 25.6512C30.6091 33.2799 22.1904 44.6313 18.2044 57.7712C14.2184 70.9112 14.9119 85.0267 20.1666 97.7127C25.4213 110.399 34.9122 120.87 47.022 127.343C59.1319 133.816 73.1115 135.89 86.5789 133.211C100.046 130.532 112.168 123.266 120.879 112.652C129.59 102.038 134.351 88.7312 134.351 75H150Z" fill="black"/>
<rect x="113.174" y="75" width="33.2335" height="15.2695" fill="black"/>
<path d="M58.0889 41.1374C55.5326 41.1727 53.0071 41.7117 50.6567 42.7236C48.3062 43.7354 46.1769 45.2003 44.3901 47.0346C42.6034 48.8689 41.1944 51.0367 40.2434 53.4142C39.2924 55.7917 38.8181 58.3324 38.8477 60.8912C38.8772 63.4499 39.41 65.9766 40.4155 68.3271C41.4211 70.6775 42.8798 72.8057 44.7082 74.59C46.5367 76.3743 48.6992 77.7798 51.0723 78.7264C53.4453 79.6729 55.9825 80.1419 58.5388 80.1065L58.4212 69.9184C57.2015 69.9353 55.991 69.7116 54.8588 69.2599C53.7265 68.8083 52.6948 68.1377 51.8224 67.2864C50.9499 66.4351 50.254 65.4197 49.7742 64.2982C49.2944 63.1768 49.0402 61.9712 49.0262 60.7504C49.0121 59.5296 49.2383 58.3174 49.6921 57.183C50.1458 56.0487 50.8181 55.0144 51.6706 54.1392C52.5231 53.264 53.539 52.565 54.6605 52.0823C55.7819 51.5995 56.9869 51.3423 58.2065 51.3255L58.0889 41.1374Z" fill="black"/>
<path d="M58.2122 69.9025C55.6558 69.9366 53.1306 70.4745 50.7805 71.4852C48.4304 72.496 46.3016 73.9599 44.5156 75.7933C42.7296 77.6268 41.3214 79.7939 40.3713 82.171C39.4213 84.548 38.9481 87.0884 38.9786 89.6471C39.0092 92.2059 39.5429 94.7328 40.5494 97.0837C41.5559 99.4346 43.0155 101.563 44.8447 103.349C46.6739 105.134 48.837 106.54 51.2104 107.488C53.5839 108.435 56.1212 108.906 58.6776 108.871L58.5559 98.6833C57.3362 98.6996 56.1256 98.4753 54.9932 98.0232C53.8608 97.5711 52.8287 96.9 51.956 96.0483C51.0832 95.1966 50.3868 94.1809 49.9066 93.0592C49.4264 91.9376 49.1717 90.7319 49.1571 89.5111C49.1426 88.2903 49.3684 87.0782 49.8216 85.944C50.2749 84.8099 50.9468 83.7759 51.7989 82.9011C52.6511 82.0264 53.6668 81.3279 54.788 80.8457C55.9093 80.3634 57.1142 80.1068 58.3339 80.0905L58.2122 69.9025Z" fill="black"/>
<rect x="61.0207" y="41.0454" width="14.8915" height="67.5997" fill="black"/>
<path d="M111.638 41.3171H95.2571L85.5776 57.7924L75.8982 74.2677L95.2571 108.917H111.638L95.2571 74.2677L111.638 41.3171Z" fill="black"/>
</svg>
